<svg xmlns="http://www.w3.org/2000/svg" viewBox="0 0 442.03 125.49"><defs><style>.cls-1,.cls-2{fill:#44a1d1}.cls-2{fill-rule:evenodd}</style></defs><title>Ресурс 1</title><g id="Слой_2" data-name="Слой 2"><g id="Слой_1-2" data-name="Слой 1"><path class="cls-1" d="M9.07 22.26C3.58 22.26 0 26 0 30.77s3.47 8.51 8.85 8.51c5.71 0 9.18-3.81 9.18-8.51s-3.47-8.51-9-8.51m8.4 78.48V46H.45v54.75zm13.7 0h17V69.17a12.26 12.26 0 0 1 .56-4.25c1.23-3.14 4-6.38 8.73-6.38 6.16 0 8.62 4.81 8.62 11.87v30.34h17V68.38c0-16.12-8.4-23.63-19.59-23.63a19.66 19.66 0 0 0-16.87 8.85h-.34l-.78-7.6H30.68c.22 4.93.45 10.64.45 17.47zm184.06-19.93a12.21 12.21 0 0 1-.34 2.91A9.41 9.41 0 0 1 206 90c-3.81 0-6.72-2.13-6.72-6.49 0-6.49 6.94-8.62 15.9-8.62zm16.46-12.43c0-13-5.71-23.74-24-23.74a45 45 0 0 0-21.27 4.93l3.14 11a30.79 30.79 0 0 1 15.12-4.14c8.4 0 10 4.14 10 7.17v.67c-19.37 0-32.14 6.72-32.14 20.94 0 8.73 6.61 16.8 17.69 16.8 6.49 0 12.09-2.35 15.68-6.72h.34l1 5.49h15.34a71 71 0 0 1-.9-13.21zM384.48 46l20.15 50.16a6.91 6.91 0 0 1 .67 2.8 5.11 5.11 0 0 1-.9 2.46 19.59 19.59 0 0 1-7.05 6.83 27.19 27.19 0 0 1-7.39 2.91l3.7 14.33A29.9 29.9 0 0 0 410 118c6.16-5.49 11.42-14.11 19.26-35.94L442 46h-18.1l-6.83 26.87c-.78 3.25-1.68 7.28-2.35 10.3h-.45c-.67-2.91-1.79-7.05-2.69-10.19l-8.17-27zm-33.14-10.2V46h-7.28v12.53h7.28v22.39c0 7.73 1.57 13 4.7 16.24 2.8 2.8 7.39 4.7 12.88 4.7a35.82 35.82 0 0 0 11-1.46l-.11-12.88a20.93 20.93 0 0 1-5 .45c-5 0-6.72-3-6.72-9.63V58.53h12.2V46H368V31.21zm-24.41-13.55c-5.49 0-9.07 3.7-9.07 8.51s3.47 8.51 8.85 8.51c5.71 0 9.18-3.81 9.18-8.51s-3.47-8.51-8.96-8.51zm8.4 78.49V46h-17v54.75zm-28.44-14a24 24 0 0 1-9.74 1.79c-8.29 0-15-5.37-15-15.34-.11-9 5.71-15.34 14.67-15.34a23.29 23.29 0 0 1 9.52 1.68L309 46.89a39.48 39.48 0 0 0-13-2.13c-20.38 0-31.35 13.1-31.35 29.11 0 17.13 11.31 28 29 28 6.49 0 12.2-1.12 15.23-2.58z"/><path class="cls-2" d="M142.14 101.8c-16.76 0-30.35-13.34-30.35-29.78a29.85 29.85 0 0 1 20.74-28.26l7.21 16.81a11.7 11.7 0 0 0 2.4 23.14 11.79 11.79 0 0 0 11.68-10.86l18.65.13c-.54 16-13.91 28.82-30.33 28.82"/><path class="cls-2" d="M171.42 70.47l-17.75-.13c-.25-4.49-4.66-9.89-11.31-10L128.58 28 142 0z"/></g></g></svg>